<svg xmlns="http://www.w3.org/2000/svg" viewBox="0 0 480 480" role="img" aria-label="Logo YBJJ Academy – Jiu Jitsu Team">
  <defs>
    <path id="arcTop" d="M 50,240 A 190,190 0 1 1 430,240"/>
    <path id="arcBot" d="M 42,240 A 198,198 0 1 0 438,240"/>
  </defs>

  <!-- Badge blanc, lisere noir -->
  <circle cx="240" cy="240" r="238" fill="#FFFFFF"/>
  <circle cx="240" cy="240" r="234" fill="none" stroke="#111111" stroke-width="7"/>

  <!-- Texte circulaire -->
  <text fill="#111111" font-family="'Arial Black','Archivo Black',Arial,sans-serif" font-size="50" font-weight="900" letter-spacing="4">
    <textPath href="#arcTop" startOffset="50%" text-anchor="middle">YBJJ ACADEMY</textPath>
  </text>
  <text fill="#111111" font-family="'Arial Black','Archivo Black',Arial,sans-serif" font-size="42" font-weight="900" letter-spacing="6">
    <textPath href="#arcBot" startOffset="50%" text-anchor="middle">JIU JITSU TEAM</textPath>
  </text>

  <!-- Ornements lateraux (couronnes) -->
  <g fill="#111111">
    <path d="M 30,232 l 5,-8 5,5 6,-7 6,7 5,-5 5,8 -3,14 h -26 Z"/>
    <path d="M 418,232 l 5,-8 5,5 6,-7 6,7 5,-5 5,8 -3,14 h -26 Z"/>
  </g>

  <!-- Anneau : ruban rouge zigzag sur fond noir -->
  <path fill="#111111" fill-rule="evenodd"
        d="M 392,240 A 152,152 0 1 1 88,240 A 152,152 0 1 1 392,240 Z
           M 350,240 A 110,110 0 1 0 130,240 A 110,110 0 1 0 350,240 Z"/>
  <path fill="#C8201E" fill-rule="evenodd" d="M 390.5,240.0 L 369.2,254.6 L 386.7,273.5 L 362.7,282.9 L 375.6,305.3 L 350.1,309.2 L 357.7,333.8 L 331.9,331.9 L 333.8,357.7 L 309.2,350.1 L 305.3,375.6 L 282.9,362.7 L 273.5,386.7 L 254.6,369.2 L 240.0,390.5 L 225.4,369.2 L 206.5,386.7 L 197.1,362.7 L 174.7,375.6 L 170.8,350.1 L 146.2,357.7 L 148.1,331.9 L 122.3,333.8 L 129.9,309.2 L 104.4,305.3 L 117.3,282.9 L 93.3,273.5 L 110.8,254.6 L 89.5,240.0 L 110.8,225.4 L 93.3,206.5 L 117.3,197.1 L 104.4,174.7 L 129.9,170.8 L 122.3,146.2 L 148.1,148.1 L 146.2,122.3 L 170.8,129.9 L 174.7,104.4 L 197.1,117.3 L 206.5,93.3 L 225.4,110.8 L 240.0,89.5 L 254.6,110.8 L 273.5,93.3 L 282.9,117.3 L 305.3,104.4 L 309.2,129.9 L 333.8,122.3 L 331.9,148.1 L 357.7,146.2 L 350.1,170.8 L 375.6,174.7 L 362.7,197.1 L 386.7,206.5 L 369.2,225.4 Z M 350.8,227.5 L 366.7,211.1 L 345.2,203.2 L 357.1,183.6 L 334.4,180.7 L 341.6,158.9 L 318.8,161.2 L 321.1,138.4 L 299.3,145.6 L 296.4,122.9 L 276.8,134.8 L 268.9,113.3 L 252.5,129.2 L 240.0,110.0 L 227.5,129.2 L 211.1,113.3 L 203.2,134.8 L 183.6,122.9 L 180.7,145.6 L 158.9,138.4 L 161.2,161.2 L 138.4,158.9 L 145.6,180.7 L 122.9,183.6 L 134.8,203.2 L 113.3,211.1 L 129.2,227.5 L 110.0,240.0 L 129.2,252.5 L 113.3,268.9 L 134.8,276.8 L 122.9,296.4 L 145.6,299.3 L 138.4,321.1 L 161.2,318.8 L 158.9,341.6 L 180.7,334.4 L 183.6,357.1 L 203.2,345.2 L 211.1,366.7 L 227.5,350.8 L 240.0,370.0 L 252.5,350.8 L 268.9,366.7 L 276.8,345.2 L 296.4,357.1 L 299.3,334.4 L 321.1,341.6 L 318.8,318.8 L 341.6,321.1 L 334.4,299.3 L 357.1,296.4 L 345.2,276.8 L 366.7,268.9 L 350.8,252.5 L 370.0,240.0 Z"/>
  <circle cx="240" cy="240" r="152" fill="none" stroke="#111111" stroke-width="3.5"/>
  <circle cx="240" cy="240" r="110" fill="none" stroke="#111111" stroke-width="3.5"/>

  <!-- Centre : grapplers stylises -->
  <circle cx="240" cy="240" r="106" fill="#FFFFFF"/>
  <g stroke="#111111" stroke-width="7" stroke-linejoin="round" fill="#FFFFFF" transform="translate(240 242) scale(1.04) translate(-240 -242)">
    <!-- Combattant au sol -->
    <polygon points="156,266 240,272 234,310 148,300"/>
    <polygon points="238,270 266,260 274,284 248,294"/>
    <polygon points="168,298 156,330 178,330 186,302"/>
    <polygon points="216,308 222,334 244,330 236,306"/>
    <!-- Combattant en attaque, diagonale -->
    <polygon points="190,156 222,148 230,176 198,186"/>
    <polygon points="202,184 240,170 290,224 260,246"/>
    <polygon points="206,188 172,228 190,240 222,202"/>
    <polygon points="264,240 314,218 324,242 278,262"/>
    <polygon points="314,220 304,176 324,170 334,238"/>
    <polygon points="260,248 286,292 304,318 282,328 262,294"/>
  </g>
  <!-- Pic dynamique -->
  <polygon points="302,156 326,134 314,164" fill="#111111"/>
  <!-- Ceinture rouge -->
  <polygon points="258,236 284,226 292,246 266,256" fill="#C8201E" stroke="#111111" stroke-width="5" stroke-linejoin="round"/>
</svg>
